# AST/ASF file generated using VICON BodyLanguage
# -----------------------------------------------
:version 1.10
:name VICON
:units
  mass 1.0
  length 0.45
  angle deg
:documentation
   .ast/.asf automatically generated from VICON data using
   VICON BodyBuilder and BodyLanguage model FoxedUp or BRILLIANT.MOD
:root
   order TX TY TZ RX RY RZ
   axis XYZ
   position 0 0 0  
   orientation 0 -0 0 
:bonedata
  begin
     id 1 
     name lhipjoint
     direction 0.432694 -0.693742 0.575759 
     length 2.19277 
     axis 0 -0 0  XYZ
  end
  begin
     id 2 
     name lfemur
     direction 0.34202 -0.939693 0  
     length 6.69022  
     axis 0 -0 20  XYZ
    dof rx ry rz
    limits (-160.0 20.0)
           (-70.0 70.0)
           (-60.0 70.0)
  end
  begin
     id 3 
     name ltibia
     direction 0.34202 -0.939693 0   
     length 6.50337   
     axis 0 -0 20   XYZ
    dof rx
    limits (-10.0 170.0)
  end
  begin
     id 4 
     name lfoot
     direction 0.158999 -0.435969 0.885805   
     length 2.70564   
     axis -90 -1.13533e-015 20   XYZ
    dof rx rz
    limits (-45.0 90.0)
           (-70.0 20.0)
  end
  begin
     id 5 
     name ltoes
     direction -0.00592919 0.00964381 0.999936   
     length 1.29929   
     axis -90 -1.13533e-015 20   XYZ
    dof rx
    limits (-90.0 20.0)
  end
  begin
     id 6 
     name rhipjoint
     direction -0.414359 -0.700339 0.581234   
     length 2.17212  
     axis 0 -0 0  XYZ 
  end
  begin
     id 7 
     name rfemur
     direction -0.34202 -0.939693 0   
     length 7.17659   
     axis 0 -0 -20   XYZ
    dof rx ry rz
    limits (-160.0 20.0)
           (-70.0 70.0)
           (-70.0 60.0)
  end
  begin
     id 8 
     name rtibia
     direction -0.34202 -0.939693 0   
     length 6.36669   
     axis 0 -0 -20   XYZ
    dof rx
    limits (-10.0 170.0)
 end
 begin
     id 9 
     name rfoot
     direction -0.137064 -0.37658 0.916188   
     length 2.22351  
     axis -90 1.13533e-015 -20   XYZ
    dof rx rz
    limits (-45.0 90.0)
           (-20.0 70.0)
  end
  begin
     id 10 
     name rtoes
     direction -0.000784077 -0.00289101 0.999996   
     length 1.09522   
     axis -90 1.13533e-015 -20   XYZ
    dof rx
    limits (-90.0 20.0)
  end
  begin
     id 11 
     name lowerback
     direction -0.0176242 0.984912 -0.172157   
     length 1.65301   
     axis 0 -0 0   XYZ
    dof rx ry rz
    limits (-20.0 45.0)
           (-30.0 30.0)
           (-30.0 30.0)
  end
  begin
     id 12 
     name upperback
     direction -0.00218128 0.998776 -0.0494072   
     length 1.67776   
     axis 0 -0 0   XYZ
    dof rx ry rz
    limits (-20.0 45.0)
           (-30.0 30.0)
           (-30.0 30.0)
  end
  begin
     id 13 
     name thorax
     direction 0.00544186 0.999658 0.0255711   
     length 1.72293   
     axis 0 -0 0   XYZ
    dof rx ry rz
    limits (-20.0 45.0)
           (-30.0 30.0)
           (-30.0 30.0)
  end
  begin
     id 14 
     name lowerneck
     direction -0.105325 0.983841 0.144785   
     length 2.14226   
     axis 0 -0 0   XYZ
    dof rx ry rz
    limits (-20.0 45.0)
           (-30.0 30.0)
           (-30.0 30.0)
  end
  begin
     id 15 
     name upperneck
     direction 0.0547957 0.988053 -0.144041   
     length 2.17508   
     axis 0 -0 0   XYZ
    dof rx ry rz
    limits (-20.0 45.0)
           (-30.0 30.0)
           (-30.0 30.0)
  end
  begin
     id 16
     name head
     direction 0.0247488 0.997534 -0.0656813  
     length 2.20048  
     axis 0 -0 0   XYZ
    dof rx ry rz
    limits (-20.0 45.0)
           (-30.0 30.0)
           (-30.0 30.0)
  end
  begin
     id 17 
     name lclavicle
     direction 0.820559 0.567247 -0.0701026  
     length 4.09615  
     axis 0 -0 0   XYZ
    dof ry rz
    limits (-20.0 10.0)
           (0.0 20.0)
  end
  begin
     id 18 
     name lhumerus
     direction 0.999977 -0.0067566 -9.96392e-005   
     length 4.59333   
     axis -180 -30 -90   XYZ
    dof rx ry rz
    limits (-60.0 90.0)
           (-90.0 90.0)
           (-90.0 90.0)
  end
  begin
     id 19
     name lradius
     direction 1 -4.48982e-011 -2.53425e-027   
     length 2.81151   
     axis -180 -30 -90   XYZ
    dof rx
    limits (-10.0 170.0)
  end
  begin
     id 20
     name lwrist
     direction 1 -4.48939e-011 -7.39254e-028   
     length 1.40576   
     axis 2.56395e-016 90 90   XYZ
    dof ry
    limits (-180.0 0.0)
 end
  begin
     id 21 
     name lhand
     direction 1 -4.48939e-011 -1.47851e-027   
     length 0.895651   
     axis 9.43423e-016 90 90   XYZ
    dof rx rz
    limits (-90.0 90.0)
           (-45.0 45.0)
  end
  begin
     id 22 
     name lfingers
     direction 1 -4.48978e-011 -2.95702e-027   
     length 0.722097   
     axis 1.88685e-015 90 90   XYZ
    dof rx
    limits (0.0 90.0)
  end
  begin
     id 23
     name lthumb
     direction 0.707107 -6.34931e-011 0.707107   
     length 1.03679   
     axis -90 45 -9.86935e-015   XYZ
    dof rx rz
    limits (-45.0 45.0)
           (-45.0 45.0)
  end
  begin
     id 24 
     name rclavicle
     direction -0.831414 0.553102 -0.0531864   
     length 4.24872  
     axis 0 -0 0   XYZ 
    dof ry rz
    limits (-10.0 20.0)
           (-20.0 0.0)
  end
  begin
     id 25 
     name rhumerus
     direction -0.999916 -0.000939607 0.0129331  
     length 4.74834   
     axis -180 30 90   XYZ
    dof rx ry rz
    limits (-90.0 60.0)
           (-90.0 90.0)
           (-90.0 90.0)
  end
  begin
     id 26 
     name rradius
     direction -1 -4.48956e-011 -1.31752e-027   
     length 2.79907   
     axis -180 30 90   XYZ
    dof rx
    limits (-10.0 170.0)
  end
  begin
     id 27 
     name rwrist
     direction -1 -4.4897e-011 -7.39254e-028   
     length 1.39954   
     axis 2.56395e-016 -90 -90   XYZ
    dof ry
    limits (-180.0 0.0)
  end
  begin
     id 28
     name rhand
     direction -0.999997 -0.00250697 0.000800838   
     length 0.953304   
     axis 9.43423e-016 -90 -90   XYZ
    dof rx rz
    limits (-90.0 90.0)
           (-45.0 45.0)
  end
  begin
     id 29
     name rfingers
     direction -1 -4.48954e-011 -2.95702e-027   
     length 0.763342   
     axis 1.88685e-015 -90 -90   XYZ
    dof rx
    limits (0.0 90.0)
  end
  begin
     id 30
     name rthumb
     direction -0.709701 -0.00217037 0.7045   
     length 1.10115   
     axis -90 -45 9.86935e-015   XYZ
    dof rx rz
    limits (-45.0 45.0)
           (-45.0 45.0)
  end
:hierarchy
  begin
    root lhipjoint rhipjoint lowerback
    lhipjoint lfemur
    lfemur ltibia
    ltibia lfoot
    lfoot ltoes
    rhipjoint rfemur
    rfemur rtibia
    rtibia rfoot
    rfoot rtoes
    lowerback upperback
    upperback thorax
    thorax lowerneck lclavicle rclavicle
    lowerneck upperneck
    upperneck head
    lclavicle lhumerus
    lhumerus lradius
    lradius lwrist
    lwrist lhand lthumb
    lhand lfingers
    rclavicle rhumerus
    rhumerus rradius
    rradius rwrist
    rwrist rhand rthumb
    rhand rfingers
  end

#!OML:ASF G:\ViconDB\ViconDB\414\test\team2\shane.ASF
:FULLY-SPECIFIED
:DEGREES
97
root 4.08611 16.0105 -15.2655 272.546 49.6798 112.179
lowerback 3.57324 -1.73559 4.94937
upperback -3.7613 -1.64918 10.079
thorax -5.82747 -0.806841 8.08654
lowerneck -24.6925 -7.55924 -4.33388
upperneck 14.6917 -10.5258 7.94581
head 9.32412 -4.35888 1.82314
rclavicle 1.74931e-013 8.11041e-014
rhumerus 64.7522 -18.5668 -50.3159
rradius 29.2403
rwrist 19.7613
rhand -53.3854 -69.8804
rfingers 7.12502
rthumb -25.8349 98.1458
lclavicle 1.74931e-013 8.11041e-014
lhumerus 66.6687 31.4503 8.11198
lradius 31.3719
lwrist -13.4838
lhand -68.5806 33.9399
lfingers 7.12502
lthumb -40.2755 59.0822
rfemur -13.407 -9.56013 -21.9342
rtibia 34.2994
rfoot -19.1554 -23.788
rtoes -8.91166
lfemur 28.9998 -20.3325 -3.27252
ltibia 46.7711
lfoot 16.0721 -11.332
ltoes -4.11025
98
root 4.13815 16.0036 -15.0719 274.177 47.362 113.706
lowerback 4.73716 -1.59266 6.11648
upperback -3.39692 -1.30281 10.356
thorax -6.1722 -0.686596 7.74293
lowerneck -25.2941 -7.43151 -4.38588
upperneck 14.1256 -10.2741 7.90428
head 9.20927 -4.25045 1.84878
rclavicle 7.15625e-015 -4.13472e-014
rhumerus 64.8749 -19.0159 -49.5752
rradius 29.6267
rwrist 17.9568
rhand -53.375 -69.9775
rfingers 7.12502
rthumb -25.8249 98.2444
lclavicle 7.15625e-015 -4.13472e-014
lhumerus 65.1034 33.2074 7.22171
lradius 31.3622
lwrist -11.5461
lhand -67.8186 38.6718
lfingers 7.12502
lthumb -39.5583 64.0296
rfemur -17.231 -11.023 -21.973
rtibia 36.4983
rfoot -21.1047 -23.2071
rtoes -6.61953
lfemur 29.1485 -19.2285 -3.7015
ltibia 45.5995
lfoot 16.3489 -10.9169
ltoes -3.2235
99
root 4.18036 15.9849 -14.88 275.619 45.0821 115.152
lowerback 5.72441 -1.40625 7.17467
upperback -2.98706 -0.919599 10.5845
thorax -6.35541 -0.549337 7.38679
lowerneck -25.594 -7.38912 -4.4132
upperneck 13.3357 -10.0898 7.66185
head 8.9555 -4.20886 1.80045
rclavicle -3.18055e-015 1.74931e-014
rhumerus 65.1787 -19.3565 -49.6636
rradius 29.9891
rwrist 17.0727
rhand -53.5783 -71.736
rfingers 7.12502
rthumb -26.0196 99.9743
lclavicle -3.18055e-015 1.74931e-014
lhumerus 63.1065 34.6466 6.30699
lradius 31.1431
lwrist -8.79063
lhand -67.8202 42.6038
lfingers 7.12502
lthumb -39.5599 67.9612
rfemur -21.3062 -12.9314 -21.9286
rtibia 38.8793
rfoot -22.8236 -22.5826
rtoes -7.64763
lfemur 29.1028 -17.8352 -3.89336
ltibia 44.6458
lfoot 16.2629 -10.3467
ltoes -4.75109
100
root 4.23506 15.9619 -14.6907 276.845 42.8644 116.263
lowerback 6.51494 -1.2182 8.05804
upperback -2.53811 -0.568297 10.7456
thorax -6.36534 -0.421214 7.04082
lowerneck -25.8873 -7.60692 -4.60555
upperneck 12.8069 -10.2617 7.62064
head 8.83594 -4.31472 1.78588
rclavicle 3.05333e-013 -1.7175e-013
rhumerus 65.5209 -20.1062 -50.0387
rradius 30.3807
rwrist 16.4477
rhand -53.6711 -71.7314
rfingers 7.12502
rthumb -26.1085 99.9567
lclavicle 3.05333e-013 -1.7175e-013
lhumerus 60.0883 35.7158 4.48374
lradius 31.3287
lwrist -5.68531
lhand -67.9094 46.2123
lfingers 7.12502
lthumb -39.6439 71.5448
rfemur -25.33 -14.8145 -21.8403
rtibia 41.1143
rfoot -24.7511 -21.8598
rtoes -8.04527
lfemur 28.5853 -16.3668 -3.80592
ltibia 43.866
lfoot 16.0065 -9.83823
ltoes -4.54778
101
root 4.30912 15.943 -14.4945 277.743 40.7047 117.194
lowerback 7.48261 -1.0867 8.85708
upperback -2.01055 -0.269886 10.9103
thorax -6.37848 -0.311712 6.75386
lowerneck -26.1826 -7.59608 -4.48005
upperneck 11.9004 -10.1065 7.11659
head 8.51897 -4.30658 1.62506
rclavicle -8.74653e-014 0
rhumerus 66.4106 -20.8999 -51.2701
rradius 30.5454
rwrist 16.5434
rhand -53.6331 -71.5212
rfingers 7.12502
rthumb -26.0721 99.7518
lclavicle -8.74653e-014 0
lhumerus 57.616 37.0144 4.06964
lradius 31.3388
lwrist -3.39986
lhand -67.193 46.7716
lfingers 7.12502
lthumb -38.9688 72.3005
rfemur -29.372 -16.4414 -21.7338
rtibia 43.3381
rfoot -26.3417 -21.3488
rtoes -8.72366
lfemur 27.848 -14.8243 -3.45086
ltibia 43.3584
lfoot 15.7796 -9.35458
ltoes -4.41396
102
root 4.38356 15.9213 -14.2973 278.633 38.9489 118.358
lowerback 8.4933 -0.915493 9.23295
upperback -1.41622 0.0459997 10.8485
thorax -6.3309 -0.178819 6.44074
lowerneck -26.4864 -7.55617 -4.25808
upperneck 11.0279 -9.74734 6.58081
head 8.19976 -3.97583 1.50422
rclavicle -7.31528e-014 1.01778e-013
rhumerus 67.5216 -21.6234 -53.1024
rradius 30.6209
rwrist 16.9518
rhand -53.3407 -70.8667
rfingers 7.12502
rthumb -25.7921 99.1384
lclavicle -7.31528e-014 1.01778e-013
lhumerus 52.3259 37.5854 0.459357
lradius 32.0616
lwrist 1.91752
lhand -66.2985 46.6093
lfingers 7.12502
lthumb -38.1249 72.3744
rfemur -33.5541 -18.2558 -21.9153
rtibia 45.4681
rfoot -27.3785 -20.8546
rtoes -8.02456
lfemur 26.979 -13.1548 -3.60902
ltibia 43.1929
lfoot 15.4059 -8.58103
ltoes -4.73431
103
root 4.46775 15.9024 -14.0867 279.25 37.1289 119.38
lowerback 9.5063 -0.748761 9.56193
upperback -0.669251 0.328885 10.8272
thorax -6.10989 -0.0552339 6.19136
lowerneck -27.2626 -7.528 -4.28612
upperneck 10.5833 -9.59931 6.40748
head 8.14888 -3.92297 1.46133
rclavicle -9.70069e-014 6.36111e-015
rhumerus 68.7938 -22.4825 -55.0916
rradius 30.6616
rwrist 17.6519
rhand -53.0362 -71.5512
rfingers 7.12502
rthumb -25.5005 99.8649
lclavicle -7.31528e-014 1.01778e-013
lhumerus 52.3259 37.5854 0.459357
lradius 32.0616
lwrist 1.91752
lhand -66.2985 46.6093
lfingers 7.12502
lthumb -38.1249 72.3744
rfemur -37.6939 -19.749 -21.9785
rtibia 47.5115
rfoot -28.4822 -20.6302
rtoes -7.88948
lfemur 26.0195 -11.328 -3.44725
ltibia 43.4356
lfoot 15.1101 -8.17105
ltoes -4.39005
104
root 4.55202 15.8789 -13.881 279.668 35.0315 120.362
lowerback 10.5511 -0.579345 10.2073
upperback 0.122758 0.645367 10.8111
thorax -5.84803 0.0763159 5.76366
lowerneck -27.3112 -7.29486 -4.34715
upperneck 8.68648 -9.15122 6.57463
head 7.49951 -3.74963 1.61618
rclavicle 1.95604e-013 1.33583e-013
rhumerus 69.4878 -23.2963 -55.9704
rradius 30.9469
rwrist 17.2994
rhand -52.9341 -72.1163
rfingers 7.12502
rthumb -25.4026 100.444
lclavicle 1.95604e-013 1.33583e-013
lhumerus 42.3527 36.2691 -5.99528
lradius 32.6822
lwrist 11.9945
lhand -63.3356 46.5301
lfingers 7.12502
lthumb -35.3212 73.0105
rfemur -41.7902 -21.2267 -21.5622
rtibia 49.3722
rfoot -29.5839 -20.0163
rtoes -6.91038
lfemur 24.9049 -9.5547 -3.02691
ltibia 43.9606
lfoot 14.7205 -8.69752
ltoes -5.81664
105
root 4.64968 15.85 -13.6708 280.173 32.8216 121.385
lowerback 11.7597 -0.387307 10.6933
upperback 0.803215 1.0278 10.7961
thorax -5.79089 0.242906 5.42248
lowerneck -28.0232 -7.39054 -4.39422
upperneck 8.49978 -9.21794 6.51063
head 7.5424 -3.78105 1.57992
rclavicle -1.28812e-013 6.67916e-014
rhumerus 70.1607 -24.0903 -56.9909
rradius 30.9334
rwrist 17.65
rhand -52.3002 -72.5248
rfingers 7.12502
rthumb -24.7952 100.937
lclavicle -1.28812e-013 6.67916e-014
lhumerus 38.5539 34.7898 -7.97973
lradius 32.037
lwrist 15.543
lhand -61.6301 45.6089
lfingers 7.12502
lthumb -33.7023 72.4583
rfemur -46.2073 -22.6003 -20.7533
rtibia 51.1773
rfoot -30.8676 -19.9356
rtoes -7.79914
lfemur 23.4918 -7.78453 -2.42602
ltibia 44.8746
lfoot 14.8491 -8.36302
ltoes -5.33504
106
root 4.74336 15.814 -13.4695 280.394 30.7962 122.414
lowerback 12.8515 -0.200511 10.8413
upperback 1.61173 1.32054 10.759
thorax -5.5216 0.383256 5.24482
lowerneck -28.399 -7.29005 -4.38542
upperneck 7.73918 -8.9684 6.00604
head 7.29448 -3.73783 1.44944
rclavicle 1.79701e-013 -7.95139e-014
rhumerus 70.5617 -24.7352 -57.4434
rradius 31.0097
rwrist 16.8655
rhand -51.8263 -72.7675
rfingers 7.12502
rthumb -24.341 101.242
lclavicle 1.79701e-013 -7.95139e-014
lhumerus 31.1341 30.4683 -13.6747
lradius 32.8391
lwrist 21.3892
lhand -60.6756 47.2526
lfingers 7.12502
lthumb -32.7948 74.2959
rfemur -50.3472 -23.8585 -19.9787
rtibia 52.7033
rfoot -32.0592 -19.604
rtoes -8.31344
lfemur 21.9995 -6.01835 -2.15613
ltibia 45.9174
lfoot 15.1782 -8.19678
ltoes -5.81205
